<?xml version="1.0" encoding="UTF-8"?>
<svg version="1.1" viewBox="0 0 300 300" xml:space="preserve"
xmlns="http://www.w3.org/2000/svg" xmlns:cc="http://creativecommons.org/ns#" xmlns:dc="http://purl.org/dc/elements/1.1/"
xmlns:rdf="http://www.w3.org/1999/02/22-rdf-syntax-ns#">
<metadata>
<rdf:RDF><cc:Work rdf:about="">
<dc:format>image/svg+xml</dc:format><dc:type rdf:resource="http://purl.org/dc/dcmitype/StillImage"/><dc:title/></cc:Work>
</rdf:RDF></metadata><g transform="matrix(1.3333 0 0 -1.3333 -111.47 366.4)">
<g>
<g fill="#f26821">
<path d="m196.24 146.96c-31.003 0-56.227 25.225-56.227 56.229 0 30.999 25.224 56.219 56.227 56.219 31.004 0 56.228-25.22 56.228-56.219 0-31.004-25.224-56.229-56.228-56.229m0 121.45c-35.971 0-65.234-29.259-65.234-65.222 0-35.971 29.263-65.236 65.234-65.236 35.968 0 65.229 29.265 65.229 65.236 0 35.963-29.261 65.222-65.229 65.222"/>
<path d="m212.2 212.88c-5.143 5.143-12.042 12.043-16.102 16.103-1.892-1.895-5.72-5.722-9.336-9.339-2.649-2.648-5.186-5.183-6.766-6.764-2.499-2.503-4.298-5.438-5.394-8.571-2.797-8.002-0.998-17.248 5.394-23.638 1.897-1.893 4.047-3.366 6.341-4.447 0.138-0.065 0.283-0.125 0.425-0.191 0.512-0.232 1.033-0.453 1.56-0.638-0.393 0.256-0.768 0.531-1.132 0.829-0.143 0.117-0.285 0.249-0.428 0.368-0.221 0.196-0.433 0.391-0.644 0.599-5.506 5.513-5.506 14.446 0 19.954 0.195 0.197 0.415 0.413 0.644 0.645 2.584 2.588 7.471 7.473 9.336 9.338 0.797-0.792 1.767-1.761 2.819-2.819 2.289-2.285 4.979-4.98 7.158-7.164 5.508-5.508 5.508-14.441 0-19.954-0.678-0.685-1.418-1.283-2.202-1.796 3.045 1.1 5.898 2.844 8.327 5.276 8.894 8.895 8.894 23.315 0 32.209"/>
<path d="m175.4 214.38 1.818-1.813 8.792 8.835-1.834 1.829h1e-3c-3.473 3.473-6.908 6.913-9.337 9.339-3.282-3.281-12.349-12.352-16.101-16.106-8.895-8.888-8.895-23.312 0-32.205 2.437-2.436 5.286-4.177 8.326-5.28-0.782 0.518-1.519 1.117-2.2 1.802-5.51 5.509-5.251 17.178 0.256 22.687 1.273 1.274 6.85 7.308 10.279 10.912"/>
<path d="m233.74 216.47c-3.747 3.753-12.823 12.824-16.106 16.106-2.424-2.427-5.863-5.867-9.331-9.339v-1e-3l-1.834-1.828 8.793-8.836 1.817 1.813c3.429-3.604 9.002-9.638 10.275-10.912 5.514-5.508 5.776-17.177 0.262-22.687-0.682-0.684-1.423-1.284-2.196-1.801 3.03 1.102 5.882 2.844 8.32 5.279 8.896 8.894 8.896 23.318 0 32.206"/></g><g fill="#58595b">
<path d="m114.12 122.96h-16.785v-8.057h14.888v-4.721h-14.888v-12.019h-5.188v29.521h21.973z"/>
<path d="m131.79 123.43c-5.86 0-9.951-4.682-9.951-10.46 0-5.777 4.174-10.542 10.036-10.542 5.863 0 9.954 4.68 9.954 10.459 0 5.776-4.176 10.543-10.039 10.543m0-25.768c-9.064 0-15.392 6.874-15.392 15.225 0 8.349 6.41 15.308 15.477 15.308 9.069 0 15.395-6.874 15.395-15.225 0-8.349-6.412-15.308-15.48-15.308"/>
<path d="m177.29 110.94c0-8.813-4.974-13.242-12.691-13.242-7.679 0-12.57 4.429-12.57 12.99v16.995h5.188v-16.784c0-5.483 2.826-8.437 7.464-8.437 4.598 0 7.424 2.784 7.424 8.226v16.995h5.185z"/>
<path d="m203.98 127.69h5.103v-29.521h-4.345l-16.279 21.002v-21.002h-5.102v29.521h4.806l15.817-20.411z"/>
<path d="m226.46 122.96h-5.819v-20.074h5.819c6.2 0 10.248 4.177 10.248 9.996 0 5.817-4.048 10.078-10.248 10.078m0-24.797h-11.008v29.521h11.008c9.279 0 15.688-6.369 15.688-14.719 0-8.349-6.409-14.802-15.688-14.802"/>
<path d="m259.69 122.96h-7.551v-9.911h7.593c3.712 0 6.072 1.939 6.072 4.977 0 3.247-2.277 4.934-6.114 4.934m6.198-24.797-7.252 10.29h-6.497v-10.29h-5.187v29.521h13.16c6.791 0 10.964-3.586 10.964-9.363 0-4.891-2.908-7.843-7.041-8.982l7.969-11.176z"/>
<path d="m289.08 98.165h-5.231v11.638l-11.722 17.883h6.116l8.263-13.074 8.35 13.074h5.95l-11.726-17.754z"/>
<path d="m91.402 61.722 5.153 6.15c3.291-2.62 6.962-4.003 10.825-4.003 2.48 0 3.816 0.859 3.816 2.29v0.093c0 1.384-1.097 2.149-5.627 3.198-7.106 1.622-12.592 3.625-12.592 10.492v0.093c0 6.202 4.912 10.686 12.923 10.686 5.678 0 10.111-1.529 13.736-4.437l-4.626-6.532c-3.051 2.143-6.391 3.29-9.346 3.29-2.242 0-3.34-0.953-3.34-2.147v-0.096c0-1.525 1.145-2.193 5.771-3.241 7.68-1.672 12.448-4.15 12.448-10.398v-0.096c0-6.82-5.389-10.873-13.495-10.873-5.914 0-11.544 1.859-15.646 5.531"/>
<path d="m139.28 73.55c3.29 0 5.294 1.719 5.294 4.34v0.097c0 2.862-2.004 4.386-5.342 4.386h-4.342v-8.823zm-13.639 16.6h14.306c8.44 0 13.875-4.341 13.875-11.733v-0.095c0-7.872-6.055-12.021-14.352-12.021h-4.58v-9.538h-9.249z"/>
<path d="m174.48 69.928-3.721 9.49-3.767-9.49zm-8.11 20.459h8.921l14.21-33.624h-9.919l-2.431 5.962h-12.879l-2.384-5.962h-9.731z"/>
<path d="m196.17 82.042h-10.017v8.107h29.282v-8.107h-10.014v-25.279h-9.251z"/>
<path d="m221.3 90.149h9.299v-33.387h-9.299z"/>
<path d="m256.88 69.928-3.724 9.49-3.766-9.49zm-8.107 20.459h8.916l14.211-33.624h-9.917l-2.435 5.962h-12.876l-2.385-5.962h-9.726z"/>
<path d="m275.38 90.149h9.25v-25.278h16.171v-8.109h-25.421z"/></g></g></g></svg>
